Coordinates
version=1
nRows=8
nColumns=36
inDegrees=yes

Units are S.I. units (second, meters, Newtons, ...)
If the header above contains a line with 'inDegrees', this indicates whether rotational values are in degrees (yes) or radians (no).

endheader
time	pelvis_tilt	pelvis_list	pelvis_rotation	pelvis_tx	pelvis_ty	pelvis_tz	hip_flexion_r	hip_adduction_r	hip_rotation_r	knee_angle_r	knee_angle_r_beta	ankle_angle_r	subtalar_angle_r	mtp_angle_r	hip_flexion_l	hip_adduction_l	hip_rotation_l	knee_angle_l	knee_angle_l_beta	ankle_angle_l	subtalar_angle_l	mtp_angle_l	lumbar_extension	lumbar_bending	lumbar_rotation	arm_flex_r	arm_add_r	arm_rot_r	elbow_flex_r	pro_sup_r	arm_flex_l	arm_add_l	arm_rot_l	elbow_flex_l	pro_sup_l
      1.08000000	     -2.83460155	     -0.59922000	      5.42267678	      1.07141329	      0.94859391	     -0.23520997	     27.96794292	     -0.31806171	     -5.12717268	      8.90322427	      0.15539058	     -1.79981980	     -1.19927699	     -7.38118778	     -7.15886389	      3.48637410	     -7.93234262	      4.17295862	      0.07283187	     18.97347765	     10.46751301	     -7.38118778	     -1.99600680	     -4.34988482	    -11.12513568	     -6.98153035	     -0.99509862	    -33.28493589	     25.32150539	    100.74362667	     24.72656311	    -11.14836967	      0.76871484	     42.51122665	    104.34616604
      1.09000000	     -3.11944809	     -0.31544163	      5.41332087	      1.08136703	      0.94635956	     -0.23496187	     27.83717177	     -0.40060506	     -5.22867633	      5.72134994	      0.09985639	     -1.71680462	     -0.66223698	     -7.38216771	     -7.55729079	      3.72992452	     -8.01064831	      4.19586211	      0.07323161	     19.29360581	     10.68354181	     -7.38216771	     -1.74846459	     -4.75394363	    -11.04033381	     -7.85250730	     -1.13946522	    -33.49618470	     24.90795808	    100.80653458	     25.59195214	    -11.18033785	      0.99637266	     43.26566662	    104.46890534
      1.10000000	     -3.30575480	     -0.13038710	      5.36543545	      1.09132459	      0.94428105	     -0.23466098	     27.63858964	     -0.37492272	     -5.30615350	      2.95895942	      0.05164358	     -1.66675124	      0.05682708	     -7.38350600	     -8.02616596	      3.85471078	     -8.08191809	      4.27973186	      0.07469541	     19.70701712	     10.91812446	     -7.38350600	     -1.66349788	     -5.01415519	    -10.98322064	     -8.52928658	     -1.28265776	    -33.66056583	     24.51537914	    100.95428550	     26.45901526	    -11.23273897	      1.30721755	     43.97806252	    104.60938112
      1.11000000	     -3.60923179	      0.15882971	      5.33010583	      1.10137167	      0.94204526	     -0.23435682	     27.91987438	     -0.51315387	     -5.90139318	      1.36893767	      0.02389247	     -1.24933506	      0.27835913	     -7.38403401	     -8.34095771	      4.10851227	     -8.13889289	      4.40764292	      0.07692788	     19.89186135	     10.94584736	     -7.38403401	     -1.40591727	     -5.39860471	    -10.87127875	     -9.29758420	     -1.40289003	    -33.77452260	     24.14486026	    101.00576989	     27.20923997	    -11.17390864	      1.40193815	     44.61463370	    104.69357050
      1.12000000	     -3.75678603	      0.25694301	      5.35815284	      1.11152735	      0.94013958	     -0.23413614	     28.27612452	     -0.56963625	     -7.78467672	      0.78175525	      0.01364420	      0.52544502	      3.52659515	     -7.39086011	     -8.68319633	      4.09070938	     -8.24873495	      4.82158788	      0.08415258	     20.39364161	     11.34036218	     -7.39086011	     -1.37861977	     -5.51224220	    -10.78749027	     -9.92327303	     -1.60164176	    -33.82007351	     23.65422543	    101.97225079	     27.96337163	    -11.15177893	      1.89745478	     45.22708643	    104.97875510
      1.13000000	     -4.07122138	      0.37996151	      5.41845722	      1.12174681	      0.93811527	     -0.23387565	     28.76260101	     -0.62602436	     -8.59859064	      0.59433034	      0.01037302	      1.51792527	      4.18088570	     -7.39394441	     -8.82177867	      4.12801113	     -8.03880533	      5.26215385	      0.09184191	     20.66622268	     11.11516783	     -7.39394441	     -1.13331286	     -5.67586043	    -10.82124531	    -10.50106675	     -1.74246335	    -33.92745985	     23.26666574	    102.29297717	     28.44622702	    -11.07300959	      1.92314591	     45.96261220	    105.10584191
      1.14000000	     -4.22416378	      0.37203555	      5.55798183	      1.13227083	      0.93649285	     -0.23365925	     28.91474972	     -0.55468868	     -9.15607271	      0.57350116	      0.01000948	      2.14027414	      4.37713488	     -7.39712464	     -9.14426293	      3.99607258	     -7.62956964	      5.68279471	      0.09918348	     20.72096722	     10.70624364	     -7.39712464	     -1.06380690	     -5.66412952	    -10.92308430	    -11.01543186	     -1.90690988	    -33.98769765	     22.86014028	    102.56290328	     28.83661255	    -10.91231945	      1.80945211	     46.70314009	    105.21313018
      1.15000000	     -4.30317754	      0.28578820	      5.74221079	      1.14309573	      0.93513301	     -0.23344645	     28.82777276	     -0.40024998	     -9.25632009	      0.66364597	      0.01158281	      2.32002637	      4.04105122	     -7.39776392	     -9.51305985	      3.73526560	     -7.35882050	      6.15684989	      0.10745730	     20.63459904	     10.56144316	     -7.39776392	     -1.04539308	     -5.55064413	    -10.95513365	    -11.57675397	     -2.06425923	    -34.07606774	     22.51659261	    102.58348297	     29.19742683	    -10.65060032	      1.80423625	     47.25162610	    105.27109957
